<svg xmlns="http://www.w3.org/2000/svg" width="68" height="68" viewBox="0 0 68 68"><defs><style>.a{fill:#036;}.b{fill:none;}.c{fill:#fff;}</style></defs><g transform="translate(-589 -889)"><circle class="a" cx="34" cy="34" r="34" transform="translate(589 889)"/><g transform="translate(604 904)"><path class="b" d="M0,0H37.121V37.121H0Z"/><path class="c" d="M17.609,2a15.617,15.617,0,0,0-2.438,31.04V22.127H11.206V17.615h3.965v-3.44c0-3.913,2.329-6.074,5.9-6.074a24.019,24.019,0,0,1,3.493.3v3.841H22.594a2.257,2.257,0,0,0-2.544,2.439v2.929h4.329l-.691,4.513H20.049V33.04A15.617,15.617,0,0,0,17.609,2Z" transform="translate(0.951 0.951)"/></g></g></svg>