<svg xmlns="http://www.w3.org/2000/svg" width="68" height="68" viewBox="0 0 68 68"><defs><style>.a{fill:#036;}.b{fill:none;}.c{fill:#fff;}</style></defs><g transform="translate(-490 -889)"><circle class="a" cx="34" cy="34" r="34" transform="translate(490 889)"/><g transform="translate(508 907)"><path class="b" d="M0,0H32V32H0Z"/><path class="c" d="M16,2c3.8,0,4.278.014,5.771.084a10.314,10.314,0,0,1,3.4.651,6.826,6.826,0,0,1,2.481,1.614A6.871,6.871,0,0,1,29.265,6.83a10.342,10.342,0,0,1,.651,3.4C29.982,11.722,30,12.2,30,16s-.014,4.278-.084,5.771a10.35,10.35,0,0,1-.651,3.4,7.148,7.148,0,0,1-4.095,4.095,10.342,10.342,0,0,1-3.4.651C20.278,29.982,19.8,30,16,30s-4.278-.014-5.771-.084a10.35,10.35,0,0,1-3.4-.651A7.148,7.148,0,0,1,2.735,25.17a10.306,10.306,0,0,1-.651-3.4C2.018,20.278,2,19.8,2,16s.014-4.278.084-5.771a10.306,10.306,0,0,1,.651-3.4A6.832,6.832,0,0,1,4.349,4.349,6.856,6.856,0,0,1,6.83,2.735a10.306,10.306,0,0,1,3.4-.651C11.722,2.018,12.2,2,16,2Zm0,7a7,7,0,1,0,7,7A7,7,0,0,0,16,9Zm9.1-.35a1.75,1.75,0,1,0-1.75,1.75A1.75,1.75,0,0,0,25.1,8.65ZM16,11.8A4.2,4.2,0,1,1,11.8,16,4.2,4.2,0,0,1,16,11.8Z"/></g></g></svg>