<svg xmlns="http://www.w3.org/2000/svg" width="222.388" height="49.911" viewBox="0 0 222.388 49.911"><defs><style>.a{fill:#fff;}.a,.b{fill-rule:evenodd;}.b{fill:#eb2232;}</style></defs><g transform="translate(0 0)"><path class="a" d="M283.2,340.6h0a6.017,6.017,0,0,0,4.461,2.315,4.422,4.422,0,0,0,.971-.1,2.389,2.389,0,0,0,.777-.324,1.723,1.723,0,0,0,.515-.576,1.822,1.822,0,0,0,.188-.848,1.265,1.265,0,0,0-.155-.647,1.746,1.746,0,0,0-.408-.5,2.974,2.974,0,0,0-.563-.369,4.018,4.018,0,0,0-.622-.275c-.385-.159-.77-.3-1.152-.434s-.761-.269-1.146-.431c-.217-.075-.482-.172-.783-.288a8.7,8.7,0,0,1-.971-.437,7.669,7.669,0,0,1-.971-.612,4.57,4.57,0,0,1-.868-.848,4.25,4.25,0,0,1-.628-1.123,3.98,3.98,0,0,1-.24-1.444,3.2,3.2,0,0,1,.492-1.777,4.209,4.209,0,0,1,1.314-1.295,6.329,6.329,0,0,1,1.855-.774,8.639,8.639,0,0,1,2.137-.259,11.447,11.447,0,0,1,3.179.408,7.288,7.288,0,0,1,2.619,1.369l-1.664,2.564c-.291-.288-.573-.547-.855-.78a5.372,5.372,0,0,0-.881-.592,4.475,4.475,0,0,0-1.016-.375,5.82,5.82,0,0,0-1.256-.123,3.356,3.356,0,0,0-1.017.139,2.148,2.148,0,0,0-.7.379,1.5,1.5,0,0,0-.4.55,1.655,1.655,0,0,0-.129.647,1.159,1.159,0,0,0,.181.647,1.871,1.871,0,0,0,.476.482,3.168,3.168,0,0,0,.647.353c.246.1.492.191.745.272.395.146.8.285,1.195.421s.8.275,1.191.414c.2.078.437.162.722.269a6.772,6.772,0,0,1,.871.395,5.687,5.687,0,0,1,.9.589,4.042,4.042,0,0,1,.8.826,4.206,4.206,0,0,1,.567,1.133,4.447,4.447,0,0,1,.223,1.489,3.367,3.367,0,0,1-.524,1.868,4.456,4.456,0,0,1-1.373,1.353,6.687,6.687,0,0,1-1.942.829,8.854,8.854,0,0,1-2.23.278,16.348,16.348,0,0,1-1.916-.11,8.928,8.928,0,0,1-1.712-.382,7.029,7.029,0,0,1-1.547-.725,6.915,6.915,0,0,1-1.382-1.152Zm-14.053-10.793h0v10.44a2.761,2.761,0,0,0,.178,1.046,1.943,1.943,0,0,0,.473.712,1.732,1.732,0,0,0,.7.4,2.781,2.781,0,0,0,.864.123,9.384,9.384,0,0,0,2.159-.259,6.752,6.752,0,0,0,2.017-.809V329.811h3.684v12.583a8.877,8.877,0,0,0,.087,1.052c.052.456.139.991.249,1.6h-3.48c-.019-.058-.052-.162-.091-.324s-.087-.324-.133-.5-.081-.346-.12-.505a3.163,3.163,0,0,1-.068-.356,7.032,7.032,0,0,1-1.078.783,8.1,8.1,0,0,1-1.256.622,7.811,7.811,0,0,1-1.321.4,5.928,5.928,0,0,1-1.269.142,6.67,6.67,0,0,1-2.528-.408,4.079,4.079,0,0,1-1.619-1.136,4.209,4.209,0,0,1-.864-1.69,8.3,8.3,0,0,1-.249-2.091V329.811Zm-16.73,12.826h0a8.736,8.736,0,0,0,1.379.346,9.831,9.831,0,0,0,1.619.136,3.261,3.261,0,0,0,1.586-.4,3.648,3.648,0,0,0,1.237-1.149,5.827,5.827,0,0,0,.816-1.836,9.541,9.541,0,0,0,.288-2.447,9.062,9.062,0,0,0-.214-2.026,4.409,4.409,0,0,0-.664-1.56,3.071,3.071,0,0,0-1.146-1,3.716,3.716,0,0,0-1.677-.353,7.289,7.289,0,0,0-.91.062c-.3.045-.6.1-.88.175a6.526,6.526,0,0,0-.8.246,3.734,3.734,0,0,0-.647.324Zm-3.664-19.7h3.664v8.015a6.477,6.477,0,0,1,1.9-.994,7.4,7.4,0,0,1,2.444-.388,6.389,6.389,0,0,1,2.959.647,5.691,5.691,0,0,1,1.994,1.712,7.154,7.154,0,0,1,1.136,2.47,11.729,11.729,0,0,1,.359,2.913,8.922,8.922,0,0,1-.647,3.561,7.4,7.4,0,0,1-1.712,2.5,6.939,6.939,0,0,1-2.392,1.476,8.093,8.093,0,0,1-2.7.479q-1.059,0-1.942-.023c-.592-.016-1.165-.036-1.712-.062s-1.1-.068-1.638-.123-1.107-.12-1.7-.2Zm-9.886,19.954h0a2.589,2.589,0,0,0,1.619-.511,3.849,3.849,0,0,0,1.11-1.34,6.8,6.8,0,0,0,.647-1.878,10.326,10.326,0,0,0,.214-2.127,9.412,9.412,0,0,0-.188-1.9,4.678,4.678,0,0,0-.631-1.563,3.2,3.2,0,0,0-1.127-1.065,3.332,3.332,0,0,0-1.683-.4,3.028,3.028,0,0,0-1.57.408,3.454,3.454,0,0,0-1.136,1.123,5.537,5.537,0,0,0-.683,1.693,9.2,9.2,0,0,0-.029,4.014,6.152,6.152,0,0,0,.647,1.751,3.929,3.929,0,0,0,1.143,1.295,2.813,2.813,0,0,0,1.667.5Zm.123,2.538h0a8.771,8.771,0,0,1-3.292-.579,6.519,6.519,0,0,1-2.4-1.641,7.057,7.057,0,0,1-1.476-2.574,10.457,10.457,0,0,1-.508-3.347,9.43,9.43,0,0,1,.463-2.965,6.945,6.945,0,0,1,1.411-2.451,6.73,6.73,0,0,1,2.379-1.683,8.46,8.46,0,0,1,3.367-.618,8.2,8.2,0,0,1,3.328.618,6.3,6.3,0,0,1,2.3,1.7,6.947,6.947,0,0,1,1.334,2.538,11.1,11.1,0,0,1,.431,3.124,9.229,9.229,0,0,1-.5,3.059,7.535,7.535,0,0,1-1.453,2.506,6.957,6.957,0,0,1-2.311,1.69,7.343,7.343,0,0,1-3.069.622Zm-14.622-22.492h3.664v18.426a1.654,1.654,0,0,0,.233,1.016.774.774,0,0,0,.647.3,2.116,2.116,0,0,0,.79-.129c.217-.081.469-.185.748-.295l.622,1.887a6.1,6.1,0,0,1-.77.453,6.987,6.987,0,0,1-.871.375,7.733,7.733,0,0,1-.949.262,4.93,4.93,0,0,1-.971.1,5.366,5.366,0,0,1-1.171-.129,2.318,2.318,0,0,1-1-.489,2.479,2.479,0,0,1-.709-.991,4.3,4.3,0,0,1-.262-1.638Zm-2.4,20.627c-.511.275-1.036.524-1.577.754a12.562,12.562,0,0,1-1.787.6,16.056,16.056,0,0,1-2.172.395,23.434,23.434,0,0,1-2.719.142,9.483,9.483,0,0,1-3.02-.453,8.342,8.342,0,0,1-4.247-3.14,10.7,10.7,0,0,1-1.275-2.37,14.08,14.08,0,0,1-.751-2.687,16.508,16.508,0,0,1-.246-2.852,14.891,14.891,0,0,1,.3-2.978,13.186,13.186,0,0,1,.871-2.745,11.034,11.034,0,0,1,1.441-2.366,9.217,9.217,0,0,1,1.984-1.855,9.041,9.041,0,0,1,2.506-1.214,9.79,9.79,0,0,1,3-.44c.534,0,1.026.016,1.47.045a10.793,10.793,0,0,1,1.237.149,6.69,6.69,0,0,1,1.094.288,7.691,7.691,0,0,1,1.046.46,9.2,9.2,0,0,1,1.091.664q.563.385,1.243.906l-2.046,2.82a14.212,14.212,0,0,0-1.36-1.117,6.4,6.4,0,0,0-1.243-.706,5.591,5.591,0,0,0-1.269-.369,9.2,9.2,0,0,0-1.46-.1,4.907,4.907,0,0,0-2.486.625,5.552,5.552,0,0,0-1.826,1.725,8.141,8.141,0,0,0-1.12,2.567,12.522,12.522,0,0,0-.382,3.169,16.623,16.623,0,0,0,.324,3.389,9.288,9.288,0,0,0,1.049,2.852,5.791,5.791,0,0,0,1.855,1.968,4.953,4.953,0,0,0,2.732.732,7.324,7.324,0,0,0,.939-.042c.333-.042.667-.068,1.007-.12s.673-.113,1-.185.625-.142.91-.217v-7.465h3.885Z" transform="translate(-143.421 -309.184)"/><path class="a" d="M560.916,336.985h0l4.979-5.629h4.587l-6.931,6.8,7.381,8.436h-4.4L560.916,340v6.588h-3.671V324.48h3.671Zm-19.96-3.017h0c0-.3,0-.69-.026-1.169a8.963,8.963,0,0,0-.159-1.444h3.457a2.459,2.459,0,0,1,.084.275c.026.117.055.246.091.379s.062.282.087.424.042.282.061.4a6.016,6.016,0,0,1,.819-.622,6.977,6.977,0,0,1,2.282-.952,6.273,6.273,0,0,1,1.389-.149,6.537,6.537,0,0,1,2.2.366,5.159,5.159,0,0,1,1.777,1.059,4.976,4.976,0,0,1,1.194,1.7,5.651,5.651,0,0,1,.437,2.266V346.59h-3.668V337.2a5.717,5.717,0,0,0-.184-1.551,2.561,2.561,0,0,0-.544-1.026,2.042,2.042,0,0,0-.881-.563,3.779,3.779,0,0,0-1.2-.178,5.726,5.726,0,0,0-.848.068,6.319,6.319,0,0,0-.923.188,9.124,9.124,0,0,0-.929.3,5.9,5.9,0,0,0-.855.379V346.6h-3.668Zm-7.552,4.671h0a12.516,12.516,0,0,0-2.687.35,4.833,4.833,0,0,0-1.661.741,2.447,2.447,0,0,0-.858,1.071,3.7,3.7,0,0,0-.236,1.347,3.148,3.148,0,0,0,.139,1.033,1.62,1.62,0,0,0,.4.664,1.473,1.473,0,0,0,.647.356,2.837,2.837,0,0,0,.8.107c.266,0,.534-.016.809-.039a5.325,5.325,0,0,0,.858-.165,5.51,5.51,0,0,0,.884-.324,5.727,5.727,0,0,0,.916-.534Zm-8.922-5.209h0a8.6,8.6,0,0,1,2.852-1.7,9.888,9.888,0,0,1,3.47-.615,9.715,9.715,0,0,1,2.357.285,6.428,6.428,0,0,1,2,.855,4.385,4.385,0,0,1,1.4,1.489,4.272,4.272,0,0,1,.521,2.153v6.8a4.93,4.93,0,0,0,.058.829,1.24,1.24,0,0,0,.188.518.747.747,0,0,0,.346.272,1.552,1.552,0,0,0,.524.074,3.675,3.675,0,0,0,.424-.042q.324-.045.592-.1l.395,1.619c-.227.139-.46.269-.693.395a4.938,4.938,0,0,1-.757.324,5.9,5.9,0,0,1-.871.223,6.392,6.392,0,0,1-1.042.087,3.091,3.091,0,0,1-1.768-.492,2.16,2.16,0,0,1-.91-1.389,6.611,6.611,0,0,1-1.227.916,6.854,6.854,0,0,1-1.276.579,7.129,7.129,0,0,1-1.295.3,10.39,10.39,0,0,1-1.246.087,6.115,6.115,0,0,1-1.849-.272,3.75,3.75,0,0,1-1.4-.8,3.494,3.494,0,0,1-.89-1.295,4.972,4.972,0,0,1-.324-1.832,5.388,5.388,0,0,1,.359-2.049,4.577,4.577,0,0,1,.994-1.518,5.407,5.407,0,0,1,1.512-1.049,8.929,8.929,0,0,1,1.913-.647,15.534,15.534,0,0,1,2.192-.34q1.156-.1,2.353-.1v-.55a3.544,3.544,0,0,0-.207-1.295,2.371,2.371,0,0,0-.586-.877,2.5,2.5,0,0,0-.9-.5,3.912,3.912,0,0,0-1.156-.162,5.072,5.072,0,0,0-1.016.094,3.9,3.9,0,0,0-.971.324,6.129,6.129,0,0,0-1.007.622,12.622,12.622,0,0,0-1.162,1Zm-13.111-6.1h0v6.559h2.059a8.166,8.166,0,0,0,1.9-.2,4.208,4.208,0,0,0,1.457-.612,2.858,2.858,0,0,0,.922-1.046,3.236,3.236,0,0,0,.324-1.486,3.915,3.915,0,0,0-.239-1.428,2.183,2.183,0,0,0-.809-1,4.09,4.09,0,0,0-1.5-.592,11.574,11.574,0,0,0-2.318-.2Zm0,9.411h0v7h2.975a6.165,6.165,0,0,0,2.014-.295,4.276,4.276,0,0,0,1.411-.787,3.088,3.088,0,0,0,.822-1.088,2.951,2.951,0,0,0,.269-1.217,3.706,3.706,0,0,0-.269-1.4,2.981,2.981,0,0,0-.832-1.149,4.208,4.208,0,0,0-1.447-.777,6.9,6.9,0,0,0-2.124-.288Zm3.185-12.262a11.3,11.3,0,0,1,3.017.375,6.906,6.906,0,0,1,2.266,1.078,4.918,4.918,0,0,1,1.45,1.735,5.3,5.3,0,0,1,.505,2.357,4.1,4.1,0,0,1-.324,1.619,5.408,5.408,0,0,1-.893,1.45,5.935,5.935,0,0,1-1.327,1.139,5.753,5.753,0,0,1-1.619.715,7.579,7.579,0,0,1,1.774.563,5.994,5.994,0,0,1,1.661,1.117,5.609,5.609,0,0,1,1.243,1.712,5.305,5.305,0,0,1,.485,2.347,5.2,5.2,0,0,1-.492,2.195,5.5,5.5,0,0,1-1.47,1.887,7.235,7.235,0,0,1-2.412,1.321,10.088,10.088,0,0,1-3.328.5H507.48v-22.11Z" transform="translate(-348.544 -310.618)"/><path class="b" d="M41.5,281.66A24.955,24.955,0,1,1,16.51,306.615,24.956,24.956,0,0,1,41.5,281.66" transform="translate(-16.51 -281.66)"/><path class="a" d="M61.959,339.67h0v-4.7l5.963.039c2.871.019,4.27,2.315,4.27,4.713,0,6.633-10.217,8.054-10.226-.052m0-12.466h0c11-5.772,11.971,6.908,5.328,6.3H61.94Zm9.585,6.882c7.886-3.02,1.295-14.778-11.612-7.5a10.061,10.061,0,0,0-4.587-2.107c-3.189-.647-7.465-.084-9.864,2.156l1.159,1.136a8.65,8.65,0,0,1,9.161-1.35,3.715,3.715,0,0,1,2.02,2.489l.058,10.8h0c-.473,7.5-10.139,6.924-10.136,0V334.97h7.6v-1.431H43.75V338.2c.029,8.867,10.815,10.359,16.157,6.044,1.534,1.4,4.555,2.35,7.575,2.331,9.576-.065,11.547-10.391,4.043-12.492Z" transform="translate(-34.932 -310.445)"/></g></svg>