<svg xmlns="http://www.w3.org/2000/svg" width="16" height="16" viewBox="0 0 16 16"><defs><style>.a{fill:#eb2232;}</style></defs><path class="a" d="M8,16a8,8,0,1,1,8-8A8.009,8.009,0,0,1,8,16ZM5.586,5.184c-.195,0-.4.088-.4.335a5.824,5.824,0,0,0,5.747,5.746.353.353,0,0,0,.334-.4V9.7a.339.339,0,0,0-.334-.334,3.851,3.851,0,0,1-1.193-.189.326.326,0,0,0-.105-.017.332.332,0,0,0-.236.1l-.531.665A5.157,5.157,0,0,1,6.539,7.617L7.2,7.056a.348.348,0,0,0,.081-.345,3.762,3.762,0,0,1-.189-1.192.339.339,0,0,0-.334-.335Z"/></svg>