<svg xmlns="http://www.w3.org/2000/svg" width="68" height="68" viewBox="0 0 68 68"><defs><style>.a{fill:#036;}.b{fill:none;}.c{fill:#fff;}</style></defs><g transform="translate(-404 -889)"><circle class="a" cx="34" cy="34" r="34" transform="translate(404 889)"/><g transform="translate(422 907)"><path class="b" d="M0,0H32V32H0Z"/><path class="c" d="M30.162,6.606a11.125,11.125,0,0,1-3.345.976A6.169,6.169,0,0,0,29.379,4.15a11.218,11.218,0,0,1-3.7,1.5,5.57,5.57,0,0,0-7-1.233,6.35,6.35,0,0,0-2.92,6.888,16.22,16.22,0,0,1-12-6.479,6.49,6.49,0,0,0-.788,3.118,6.315,6.315,0,0,0,2.59,5.161,5.537,5.537,0,0,1-2.637-.775v.077a6.122,6.122,0,0,0,4.671,6.08,5.516,5.516,0,0,1-2.631.107,5.885,5.885,0,0,0,5.44,4.307,11.184,11.184,0,0,1-8.621,2.568A15.752,15.752,0,0,0,10.7,28.262c10.712,0,16.57-9.449,16.57-17.644,0-.267-.007-.537-.018-.8a12.285,12.285,0,0,0,2.906-3.21Z"/></g></g></svg>