<svg xmlns="http://www.w3.org/2000/svg" width="16" height="16" viewBox="0 0 16 16"><defs><style>.a{fill:#eb2232;}</style></defs><path class="a" d="M8,16A8,8,0,0,1,2.343,2.343,8,8,0,1,1,13.657,13.657,7.948,7.948,0,0,1,8,16ZM8,3a5,5,0,1,0,5,5A5.006,5.006,0,0,0,8,3Zm-.5,8.965h0A4,4,0,0,1,4,8a4.066,4.066,0,0,1,.1-.9L6.5,9.5V10a1,1,0,0,0,1,1v.965Zm3.45-1.27h0A1,1,0,0,0,10,10H9.5V8.5A.5.5,0,0,0,9,8H6V7H7a.5.5,0,0,0,.5-.5v-1h1a1,1,0,0,0,1-1V4.295a4.011,4.011,0,0,1,1.8,1.448,3.985,3.985,0,0,1-.349,4.952Z"/></svg>